<svg width="25" height="24" viewBox="0 0 25 24" fill="none" xmlns="http://www.w3.org/2000/svg">
<path fill-rule="evenodd" clip-rule="evenodd" d="M6.45948 12C6.45948 12.1989 6.53849 12.3896 6.67915 12.5303C6.8198 12.671 7.01056 12.75 7.20948 12.75L15.899 12.75L12.6785 15.969C12.6087 16.0387 12.5534 16.1215 12.5157 16.2126C12.478 16.3037 12.4585 16.4014 12.4585 16.5C12.4585 16.5986 12.478 16.6962 12.5157 16.7873C12.5534 16.8785 12.6087 16.9612 12.6785 17.031C12.7482 17.1007 12.831 17.156 12.9221 17.1938C13.0132 17.2315 13.1109 17.2509 13.2095 17.2509C13.3081 17.2509 13.4057 17.2315 13.4969 17.1938C13.588 17.156 13.6707 17.1007 13.7405 17.031L18.2405 12.531C18.3103 12.4613 18.3657 12.3785 18.4035 12.2874C18.4414 12.1963 18.4608 12.0986 18.4608 12C18.4608 11.9013 18.4414 11.8036 18.4035 11.7125C18.3657 11.6214 18.3103 11.5386 18.2405 11.469L13.7405 6.96897C13.5996 6.82814 13.4086 6.74902 13.2095 6.74902C13.0103 6.74902 12.8193 6.82814 12.6785 6.96897C12.5376 7.1098 12.4585 7.30081 12.4585 7.49997C12.4585 7.69913 12.5376 7.89014 12.6785 8.03097L15.899 11.25L7.20948 11.25C7.01056 11.25 6.8198 11.329 6.67915 11.4696C6.53849 11.6103 6.45948 11.8011 6.45948 12Z" fill="#393939"/>
<rect x="23.9595" y="0.5" width="23" height="23" transform="rotate(90 23.9595 0.5)" stroke="#393939"/>
</svg>
