<svg width="27" height="20" viewBox="0 0 27 20" fill="none" xmlns="http://www.w3.org/2000/svg">
<path d="M23.225 2.425C20.7375 1.1875 17.2875 0.5 13.5 0.5C9.7125 0.5 6.2625 1.1875 3.775 2.425C1.2875 3.6625 0 5.3 0 7V13C0 14.7 1.375 16.375 3.775 17.575C4.27139 17.8187 4.78045 18.0356 5.3 18.225H5.3375C7.625 19.05 10.45 19.5 13.5 19.5C16.55 19.5 19.375 19.05 21.6625 18.2375H21.7C22.2195 18.0481 22.7286 17.8312 23.225 17.5875C25.625 16.375 27 14.7 27 13V7C27 5.3 25.625 3.625 23.225 2.425ZM13.5 1.5C21.225 1.5 26 4.35 26 7C26 9.65 21.225 12.5 13.5 12.5C5.775 12.5 1 9.65 1 7C1 4.35 5.775 1.5 13.5 1.5ZM13 13.5V18.5C10.25 18.45 7.8875 18.0375 6 17.4V12.45C8.025 13.0875 10.425 13.45 13 13.5ZM14 13.5C16.575 13.45 18.975 13.0875 21 12.45V17.4C19.1125 18.0375 16.75 18.45 14 18.5V13.5ZM1 13V9.4875C1.65 10.2625 2.5875 10.975 3.775 11.575C4.1625 11.7625 4.575 11.9375 5 12.1125V17.025C2.4375 15.9625 1 14.45 1 13ZM26 13C26 14.45 24.5625 15.9625 22 17.025V12.1125C22.425 11.9375 22.8375 11.7625 23.225 11.575C24.4125 10.975 25.35 10.2625 26 9.4875V13Z" fill="#393939"/>
</svg>
