<svg width="23" height="23" viewBox="0 0 23 23" fill="none" xmlns="http://www.w3.org/2000/svg">
<path d="M11.5011 0C8.37784 0 7.98588 0.0136566 6.7592 0.0694801C5.53491 0.125543 4.69924 0.319368 3.96802 0.603756C3.21165 0.897489 2.57004 1.29041 1.93082 1.92986C1.29113 2.56908 0.898207 3.21069 0.603516 3.96682C0.318409 4.69828 0.124345 5.53419 0.0692402 6.758C0.014375 7.98468 0 8.37688 0 11.5001C0 14.6234 0.0138962 15.0141 0.0694801 16.2408C0.125783 17.4651 0.319608 18.3008 0.603756 19.032C0.897728 19.7884 1.29065 20.43 1.9301 21.0692C2.56908 21.7089 3.21069 22.1028 3.96658 22.3965C4.69828 22.6809 5.53419 22.8747 6.75824 22.9308C7.98492 22.9866 8.37664 23.0002 11.4996 23.0002C14.6231 23.0002 15.0139 22.9866 16.2406 22.9308C17.4648 22.8747 18.3015 22.6809 19.0332 22.3965C19.7893 22.1028 20.43 21.7089 21.0689 21.0692C21.7086 20.43 22.1016 19.7884 22.3962 19.0322C22.679 18.3008 22.873 17.4648 22.9305 16.241C22.9856 15.0144 23 14.6234 23 11.5001C23 8.37688 22.9856 7.98492 22.9305 6.75824C22.873 5.53395 22.679 4.69828 22.3962 3.96706C22.1016 3.21069 21.7086 2.56908 21.0689 1.92986C20.4292 1.29017 19.7896 0.897249 19.0325 0.603756C18.2993 0.319368 17.4632 0.125543 16.2389 0.0694801C15.0122 0.0136566 14.6217 0 11.4975 0H11.5011ZM10.4694 2.07242C10.7756 2.07194 11.1173 2.07242 11.5011 2.07242C14.5716 2.07242 14.9355 2.08344 16.1481 2.13854C17.2693 2.18981 17.8779 2.37717 18.2833 2.53458C18.8199 2.74302 19.2026 2.99219 19.6048 3.39469C20.0073 3.7972 20.2565 4.18053 20.4654 4.7172C20.6228 5.1221 20.8104 5.73065 20.8615 6.85191C20.9166 8.06422 20.9285 8.42839 20.9285 11.4975C20.9285 14.5666 20.9166 14.9307 20.8615 16.1431C20.8102 17.2643 20.6228 17.8729 20.4654 18.2778C20.257 18.8144 20.0073 19.1966 19.6048 19.5988C19.2023 20.0013 18.8202 20.2505 18.2833 20.459C17.8784 20.6171 17.2693 20.804 16.1481 20.8552C14.9358 20.9103 14.5716 20.9223 11.5011 20.9223C8.43031 20.9223 8.06638 20.9103 6.85407 20.8552C5.73281 20.8035 5.12426 20.6161 4.71864 20.4587C4.18197 20.2503 3.79863 20.0011 3.39613 19.5986C2.99362 19.1961 2.74446 18.8137 2.53554 18.2768C2.37813 17.8719 2.19053 17.2634 2.1395 16.1421C2.0844 14.9298 2.07338 14.5656 2.07338 11.4946C2.07338 8.4236 2.0844 8.06134 2.1395 6.84904C2.19077 5.72778 2.37813 5.11923 2.53554 4.71385C2.74398 4.17718 2.99362 3.79384 3.39613 3.39134C3.79863 2.98883 4.18197 2.73966 4.71864 2.53074C5.12402 2.37262 5.73281 2.18574 6.85407 2.13423C7.91496 2.08631 8.32609 2.07194 10.4694 2.06954V2.07242ZM17.6397 3.98192C16.8779 3.98192 16.2597 4.59933 16.2597 5.36145C16.2597 6.12333 16.8779 6.74147 17.6397 6.74147C18.4016 6.74147 19.0198 6.12333 19.0198 5.36145C19.0198 4.59957 18.4016 3.98144 17.6397 3.98144V3.98192ZM11.5011 5.59433C8.2396 5.59433 5.59529 8.23864 5.59529 11.5001C5.59529 14.7616 8.2396 17.4047 11.5011 17.4047C14.7626 17.4047 17.4059 14.7616 17.4059 11.5001C17.4059 8.23864 14.7623 5.59433 11.5008 5.59433H11.5011ZM11.5011 7.66675C13.6181 7.66675 15.3345 9.3829 15.3345 11.5001C15.3345 13.6171 13.6181 15.3335 11.5011 15.3335C9.38386 15.3335 7.66771 13.6171 7.66771 11.5001C7.66771 9.3829 9.38386 7.66675 11.5011 7.66675V7.66675Z" fill="#808080"/>
</svg>
