<svg width="18" height="24" viewBox="0 0 18 24" fill="none" xmlns="http://www.w3.org/2000/svg">
<path fill-rule="evenodd" clip-rule="evenodd" d="M3.44813 4.20966C4.14255 3.51002 4.96849 2.95463 5.8784 2.57545C6.78832 2.19627 7.76424 2.0008 8.75 2.00028C10.7375 2.00028 12.645 2.79403 14.0519 4.20966C15.4609 5.62913 16.2511 7.54837 16.25 9.54841C16.25 13.0022 14.335 16.1284 12.34 18.4365C11.4993 19.4045 10.5878 20.3087 9.61313 21.1415C9.33131 21.3833 9.04351 21.6179 8.75 21.8453C8.45661 21.6178 8.16882 21.3831 7.88688 21.1415C6.91217 20.3087 6.00071 19.4045 5.16 18.4365C3.165 16.1284 1.25 13.0022 1.25 9.54841C1.25 7.54528 2.04125 5.62528 3.44813 4.20966ZM8.39 23.1359L8.75 22.6253L9.11 23.1359C9.00457 23.21 8.87885 23.2497 8.75 23.2497C8.62115 23.2497 8.49543 23.21 8.39 23.1359ZM8.39 23.1359L8.75 22.6253L9.11 23.1359L9.1125 23.1347L9.11875 23.1303L9.1375 23.1159L9.21125 23.0628C9.27375 23.0165 9.365 22.949 9.48 22.8603C9.71 22.684 10.0363 22.4247 10.4256 22.0915C11.4478 21.2179 12.4035 20.2694 13.285 19.254C15.3525 16.8628 17.5 13.4497 17.5 9.54778C17.5 7.21653 16.5788 4.97903 14.9388 3.32903C14.1281 2.5124 13.164 1.86415 12.1019 1.42158C11.0398 0.979011 9.90064 0.750869 8.75 0.750282C7.59941 0.750787 6.46027 0.978831 5.39816 1.42129C4.33604 1.86375 3.37191 2.51189 2.56125 3.32841C0.91964 4.98218 -0.00110189 7.2182 9.89636e-07 9.54841C9.89636e-07 13.4497 2.1475 16.8628 4.215 19.254C5.09648 20.2694 6.05224 21.2179 7.07438 22.0915C7.46438 22.4247 7.79 22.684 8.02 22.8603C8.13281 22.9472 8.24678 23.0326 8.36188 23.1165L8.38188 23.1303L8.3875 23.1347L8.39 23.1359ZM6.25 9.50028C6.25 8.83724 6.51339 8.20136 6.98223 7.73252C7.45108 7.26367 8.08696 7.00028 8.75 7.00028C9.41304 7.00028 10.0489 7.26367 10.5178 7.73252C10.9866 8.20136 11.25 8.83724 11.25 9.50028C11.25 10.1633 10.9866 10.7992 10.5178 11.268C10.0489 11.7369 9.41304 12.0003 8.75 12.0003C8.08696 12.0003 7.45108 11.7369 6.98223 11.268C6.51339 10.7992 6.25 10.1633 6.25 9.50028ZM8.75 5.75028C7.75544 5.75028 6.80161 6.14537 6.09835 6.84863C5.39509 7.55189 5 8.50572 5 9.50028C5 10.4948 5.39509 11.4487 6.09835 12.1519C6.80161 12.8552 7.75544 13.2503 8.75 13.2503C9.74456 13.2503 10.6984 12.8552 11.4017 12.1519C12.1049 11.4487 12.5 10.4948 12.5 9.50028C12.5 8.50572 12.1049 7.55189 11.4017 6.84863C10.6984 6.14537 9.74456 5.75028 8.75 5.75028Z" fill="#393939"/>
</svg>
