<svg width="96" height="19" viewBox="0 0 96 19" fill="none" xmlns="http://www.w3.org/2000/svg">
<path d="M0.776 18V0.959999H6.968C8.824 0.959999 10.376 1.344 11.624 2.112C12.872 2.864 13.808 3.888 14.432 5.184C15.056 6.464 15.368 7.888 15.368 9.456C15.368 11.184 15.024 12.688 14.336 13.968C13.648 15.248 12.672 16.24 11.408 16.944C10.16 17.648 8.68 18 6.968 18H0.776ZM12.032 9.456C12.032 8.352 11.832 7.384 11.432 6.552C11.032 5.704 10.456 5.048 9.704 4.584C8.952 4.104 8.04 3.864 6.968 3.864H4.088V15.096H6.968C8.056 15.096 8.976 14.856 9.728 14.376C10.48 13.88 11.048 13.208 11.432 12.36C11.832 11.496 12.032 10.528 12.032 9.456ZM29.7877 15.096V18H17.9557V0.959999H29.5717V3.864H21.2677V7.968H28.4437V10.656H21.2677V15.096H29.7877ZM56.0469 18.12C54.6869 18.12 53.5269 17.896 52.5669 17.448C51.6229 16.984 50.8549 16.352 50.2629 15.552C49.6869 14.752 49.2629 13.848 48.9909 12.84C48.7189 11.816 48.5829 10.752 48.5829 9.648V0.959999H51.8949V9.648C51.8949 10.352 51.9589 11.04 52.0869 11.712C52.2309 12.368 52.4629 12.96 52.7829 13.488C53.1029 14.016 53.5269 14.432 54.0549 14.736C54.5829 15.04 55.2389 15.192 56.0229 15.192C56.8229 15.192 57.4869 15.04 58.0149 14.736C58.5589 14.416 58.9829 13.992 59.2869 13.464C59.6069 12.936 59.8389 12.344 59.9829 11.688C60.1269 11.016 60.1989 10.336 60.1989 9.648V0.959999H63.4869V9.648C63.4869 10.816 63.3429 11.912 63.0549 12.936C62.7829 13.96 62.3429 14.864 61.7349 15.648C61.1429 16.416 60.3749 17.024 59.4309 17.472C58.4869 17.904 57.3589 18.12 56.0469 18.12ZM66.8229 18V0.959999H78.2709V3.864H70.1349V8.256H76.9029V10.944H70.1349V18H66.8229ZM87.6183 18.12C86.3703 18.12 85.2343 17.88 84.2103 17.4C83.2023 16.92 82.3303 16.272 81.5943 15.456C80.8743 14.624 80.3143 13.696 79.9143 12.672C79.5143 11.632 79.3143 10.568 79.3143 9.48C79.3143 8.344 79.5223 7.264 79.9383 6.24C80.3703 5.2 80.9543 4.28 81.6903 3.48C82.4423 2.664 83.3223 2.024 84.3303 1.56C85.3543 1.08 86.4743 0.839999 87.6903 0.839999C88.9223 0.839999 90.0423 1.088 91.0503 1.584C92.0743 2.08 92.9463 2.744 93.6663 3.576C94.3863 4.408 94.9463 5.336 95.3463 6.36C95.7463 7.384 95.9463 8.44 95.9463 9.528C95.9463 10.648 95.7383 11.728 95.3223 12.768C94.9063 13.792 94.3223 14.712 93.5703 15.528C92.8343 16.328 91.9543 16.96 90.9303 17.424C89.9223 17.888 88.8183 18.12 87.6183 18.12ZM82.6743 9.48C82.6743 10.216 82.7863 10.928 83.0103 11.616C83.2343 12.304 83.5543 12.92 83.9703 13.464C84.4023 13.992 84.9223 14.416 85.5303 14.736C86.1543 15.04 86.8583 15.192 87.6423 15.192C88.4423 15.192 89.1543 15.032 89.7783 14.712C90.4023 14.376 90.9223 13.936 91.3383 13.392C91.7543 12.832 92.0663 12.216 92.2743 11.544C92.4983 10.856 92.6103 10.168 92.6103 9.48C92.6103 8.744 92.4903 8.04 92.2503 7.368C92.0263 6.68 91.6983 6.072 91.2663 5.544C90.8503 5 90.3303 4.576 89.7063 4.272C89.0983 3.952 88.4103 3.792 87.6423 3.792C86.8263 3.792 86.1063 3.96 85.4823 4.296C84.8743 4.616 84.3623 5.048 83.9463 5.592C83.5303 6.136 83.2103 6.744 82.9863 7.416C82.7783 8.088 82.6743 8.776 82.6743 9.48Z" fill="#393939"/>
<path d="M31.3378 9.36C31.3378 8.32 31.5218 7.304 31.8898 6.312C32.2738 5.304 32.8258 4.392 33.5458 3.576C34.2658 2.744 35.1458 2.088 36.1858 1.608C37.2258 1.112 38.4098 0.863999 39.7378 0.863999C41.3058 0.863999 42.6578 1.208 43.7938 1.896C44.9458 2.584 45.8018 3.48 46.3618 4.584L43.8177 6.336C43.5298 5.696 43.1538 5.192 42.6898 4.824C42.2258 4.44 41.7298 4.176 41.2018 4.032C40.6738 3.872 40.1538 3.792 39.6418 3.792C38.8098 3.792 38.0818 3.96 37.4578 4.296C36.8498 4.632 36.3378 5.072 35.9218 5.616C35.5058 6.16 35.1938 6.768 34.9858 7.44C34.7938 8.112 34.6978 8.784 34.6978 9.456C34.6978 10.208 34.8178 10.936 35.0578 11.64C35.2978 12.328 35.6338 12.944 36.0658 13.488C36.5138 14.016 37.0418 14.44 37.6497 14.76C38.2738 15.064 38.9538 15.216 39.6898 15.216C40.2178 15.216 40.7538 15.128 41.2978 14.952C41.8418 14.776 42.3458 14.496 42.8098 14.112C43.2738 13.728 43.6338 13.232 43.8898 12.624L46.6018 14.184C46.2658 15.032 45.7138 15.752 44.9458 16.344C44.1938 16.936 43.3458 17.384 42.4018 17.688C41.4578 17.992 40.5218 18.144 39.5938 18.144C38.3778 18.144 37.2658 17.896 36.2578 17.4C35.2498 16.888 34.3778 16.216 33.6418 15.384C32.9218 14.536 32.3538 13.592 31.9378 12.552C31.5378 11.496 31.3378 10.432 31.3378 9.36Z" fill="#FFCA0D"/>
</svg>
