<svg width="509" height="93" viewBox="0 0 509 93" fill="none" xmlns="http://www.w3.org/2000/svg">
<path d="M0.472 92V1.12H33.496C43.3947 1.12 51.672 3.16799 58.328 7.26399C64.984 11.2747 69.976 16.736 73.304 23.648C76.632 30.4747 78.296 38.0693 78.296 46.432C78.296 55.648 76.4613 63.6693 72.792 70.496C69.1227 77.3227 63.9173 82.6133 57.176 86.368C50.52 90.1227 42.6267 92 33.496 92H0.472ZM60.504 46.432C60.504 40.544 59.4373 35.3813 57.304 30.944C55.1707 26.4213 52.0987 22.9227 48.088 20.448C44.0773 17.888 39.2133 16.608 33.496 16.608H18.136V76.512H33.496C39.2987 76.512 44.2053 75.232 48.216 72.672C52.2267 70.0267 55.256 66.4427 57.304 61.92C59.4373 57.312 60.504 52.1493 60.504 46.432ZM155.201 76.512V92H92.097V1.12H154.049V16.608H109.761V38.496H148.033V52.832H109.761V76.512H155.201ZM295.25 92.64C287.997 92.64 281.81 91.4453 276.69 89.056C271.655 86.5813 267.559 83.2107 264.402 78.944C261.33 74.6773 259.069 69.856 257.618 64.48C256.167 59.0187 255.442 53.344 255.442 47.456V1.12H273.106V47.456C273.106 51.2107 273.447 54.88 274.13 58.464C274.898 61.9627 276.135 65.12 277.842 67.936C279.549 70.752 281.81 72.9707 284.626 74.592C287.442 76.2133 290.941 77.024 295.122 77.024C299.389 77.024 302.93 76.2133 305.746 74.592C308.647 72.8853 310.909 70.624 312.53 67.808C314.237 64.992 315.474 61.8347 316.242 58.336C317.01 54.752 317.394 51.1253 317.394 47.456V1.12H334.93V47.456C334.93 53.6853 334.162 59.5307 332.626 64.992C331.175 70.4533 328.829 75.2747 325.586 79.456C322.429 83.552 318.333 86.7947 313.298 89.184C308.263 91.488 302.247 92.64 295.25 92.64ZM352.722 92V1.12H413.778V16.608H370.386V40.032H406.482V54.368H370.386V92H352.722ZM463.631 92.64C456.975 92.64 450.916 91.36 445.455 88.8C440.079 86.24 435.428 82.784 431.503 78.432C427.663 73.9947 424.676 69.0453 422.543 63.584C420.41 58.0373 419.343 52.3627 419.343 46.56C419.343 40.5013 420.452 34.7413 422.671 29.28C424.975 23.7333 428.09 18.8267 432.015 14.56C436.026 10.208 440.719 6.79466 446.095 4.31999C451.556 1.75999 457.53 0.479996 464.015 0.479996C470.586 0.479996 476.559 1.80266 481.935 4.448C487.396 7.09333 492.047 10.6347 495.887 15.072C499.727 19.5093 502.714 24.4587 504.847 29.92C506.98 35.3813 508.047 41.0133 508.047 46.816C508.047 52.7893 506.938 58.5493 504.719 64.096C502.5 69.5573 499.386 74.464 495.375 78.816C491.45 83.0827 486.756 86.4533 481.295 88.928C475.919 91.4027 470.031 92.64 463.631 92.64ZM437.263 46.56C437.263 50.4853 437.86 54.2827 439.055 57.952C440.25 61.6213 441.956 64.9067 444.175 67.808C446.479 70.624 449.252 72.8853 452.495 74.592C455.823 76.2133 459.578 77.024 463.759 77.024C468.026 77.024 471.823 76.1707 475.151 74.464C478.479 72.672 481.252 70.3253 483.471 67.424C485.69 64.4373 487.354 61.152 488.463 57.568C489.658 53.8987 490.255 50.2293 490.255 46.56C490.255 42.6347 489.615 38.88 488.335 35.296C487.14 31.6267 485.391 28.384 483.087 25.568C480.868 22.6667 478.095 20.4053 474.767 18.784C471.524 17.0773 467.855 16.224 463.759 16.224C459.407 16.224 455.567 17.12 452.239 18.912C448.996 20.6187 446.266 22.9227 444.047 25.824C441.828 28.7253 440.122 31.968 438.927 35.552C437.818 39.136 437.263 42.8053 437.263 46.56Z" fill="white"/>
<path d="M163.468 45.92C163.468 40.3733 164.449 34.9547 166.412 29.664C168.46 24.288 171.404 19.424 175.244 15.072C179.084 10.6347 183.777 7.13599 189.324 4.576C194.871 1.93066 201.185 0.607994 208.268 0.607994C216.631 0.607994 223.841 2.44266 229.9 6.112C236.044 9.78133 240.609 14.56 243.596 20.448L230.028 29.792C228.492 26.3787 226.487 23.6907 224.012 21.728C221.537 19.68 218.892 18.272 216.076 17.504C213.26 16.6507 210.487 16.224 207.756 16.224C203.319 16.224 199.436 17.12 196.108 18.912C192.865 20.704 190.135 23.0507 187.916 25.952C185.697 28.8533 184.033 32.096 182.924 35.68C181.9 39.264 181.388 42.848 181.388 46.432C181.388 50.4427 182.028 54.3253 183.308 58.08C184.588 61.7493 186.38 65.0347 188.684 67.936C191.073 70.752 193.889 73.0133 197.132 74.72C200.46 76.3413 204.087 77.152 208.012 77.152C210.828 77.152 213.687 76.6827 216.588 75.744C219.489 74.8053 222.177 73.312 224.652 71.264C227.127 69.216 229.047 66.5707 230.412 63.328L244.876 71.648C243.084 76.1707 240.14 80.0107 236.044 83.168C232.033 86.3253 227.511 88.7147 222.476 90.336C217.441 91.9573 212.449 92.768 207.5 92.768C201.015 92.768 195.084 91.4453 189.708 88.8C184.332 86.0693 179.681 82.4853 175.756 78.048C171.916 73.5253 168.887 68.4907 166.668 62.944C164.535 57.312 163.468 51.6373 163.468 45.92Z" fill="#FFCA0D"/>
</svg>
