<svg width="25" height="18" viewBox="0 0 25 18" fill="none" xmlns="http://www.w3.org/2000/svg">
<path d="M22.1471 3.31231L12.7297 10.2432L3.31231 3.31231M2.2012 1.01802C1.88262 1.01802 1.57709 1.14457 1.35182 1.36984C1.12656 1.59511 1 1.90064 1 2.21922V15.7988C1 16.1174 1.12656 16.4229 1.35182 16.6482C1.57709 16.8734 1.88262 17 2.2012 17H23.2583C23.5768 17 23.8824 16.8734 24.1076 16.6482C24.3329 16.4229 24.4595 16.1174 24.4595 15.7988V2.2012C24.4595 1.88262 24.3329 1.57709 24.1076 1.35182C23.8824 1.12655 23.5768 1 23.2583 1H2.2012V1.01802Z" stroke="#393939" stroke-linecap="round" stroke-linejoin="round"/>
</svg>
