<svg width="21" height="22" viewBox="0 0 21 22" fill="none" xmlns="http://www.w3.org/2000/svg">
<path d="M17.815 13.7474C16.8885 13.6331 15.9686 13.471 15.0588 13.2618C14.8367 13.1876 14.5991 13.1719 14.3692 13.2164C14.1393 13.2608 13.9247 13.3639 13.7463 13.5156C13.5144 13.7518 12.845 14.4124 12.1494 15.0949C9.65706 13.8697 7.64143 11.8526 6.41815 9.35931C7.09627 8.66368 7.73065 7.99868 7.98877 7.76681C8.14044 7.58837 8.24349 7.3738 8.28795 7.14387C8.3324 6.91394 8.31675 6.67642 8.24252 6.45431C8.03305 5.54311 7.87096 4.62166 7.7569 3.69368C7.74467 3.57551 7.70852 3.46107 7.65063 3.35732C7.59274 3.25358 7.51433 3.16271 7.42018 3.09026C7.32603 3.0178 7.21811 2.96528 7.103 2.93589C6.98789 2.9065 6.86801 2.90086 6.75065 2.91931H3.02315C2.86928 2.9332 2.72525 3.00093 2.61642 3.11056C2.50758 3.2202 2.44091 3.36472 2.42815 3.51868C2.18752 6.88306 4.0644 10.4837 4.44502 11.1749V11.2012L4.49752 11.3018C5.86005 13.6649 7.82189 15.6268 10.185 16.9893V16.9893L10.3775 17.0987C11.2525 17.5624 14.7306 19.3124 17.9813 19.0718C18.1368 19.061 18.2834 18.9952 18.3948 18.8862C18.5062 18.7772 18.5752 18.6321 18.5894 18.4768V14.7537C18.6078 14.6363 18.6022 14.5164 18.5728 14.4013C18.5434 14.2862 18.4909 14.1783 18.4184 14.0841C18.346 13.99 18.2551 13.9116 18.1514 13.8537C18.0476 13.7958 17.9332 13.7597 17.815 13.7474Z" stroke="#393939" stroke-linecap="round" stroke-linejoin="round"/>
</svg>
