<svg width="23" height="23" viewBox="0 0 23 23" fill="none" xmlns="http://www.w3.org/2000/svg">
<path d="M12.9375 1.46516e-05L15.7846 0C15.9902 1.02783 16.5609 2.32452 17.5591 3.61092C18.5372 4.8714 19.8334 5.75001 21.5625 5.75001V8.62502C19.042 8.62502 17.148 7.45552 15.8125 5.99638V15.8125C15.8125 19.7821 12.5945 23 8.625 23C4.65545 23 1.4375 19.7821 1.4375 15.8125C1.4375 11.843 4.65545 8.62502 8.625 8.62502V11.5C6.24327 11.5 4.3125 13.4308 4.3125 15.8125C4.3125 18.1942 6.24327 20.125 8.625 20.125C11.0067 20.125 12.9375 18.1942 12.9375 15.8125V1.46516e-05Z" fill="#808080"/>
</svg>
