<svg width="22" height="23" viewBox="0 0 22 23" fill="none" xmlns="http://www.w3.org/2000/svg">
<path d="M18.7018 3.34426C16.6476 1.18579 13.9087 0 10.9921 0C4.98645 0 0.0940839 5.11475 0.088857 11.3934C0.088857 13.4044 0.590638 15.3607 1.54193 17.0929L0 23L5.78093 21.4153C7.37513 22.3224 9.16796 22.8033 10.9921 22.8033H10.9974C17.0031 22.8033 21.8954 17.6885 21.9006 11.4044C21.8954 8.36066 20.7612 5.49727 18.7018 3.34426ZM10.9921 20.8743C9.36135 20.8743 7.76715 20.4153 6.3768 19.5519L6.04751 19.3443L2.61867 20.2842L3.53337 16.7869L3.31907 16.4262C2.40959 14.918 1.93395 13.1749 1.93395 11.388C1.93395 6.17486 6.00046 1.9235 10.9974 1.9235C13.4174 1.9235 15.6911 2.91257 17.4055 4.69945C19.1147 6.4918 20.0556 8.86885 20.0556 11.3989C20.0503 16.6284 15.9838 20.8743 10.9921 20.8743ZM15.9629 13.7814C15.6911 13.6393 14.353 12.9508 14.1021 12.8525C13.8512 12.7596 13.6683 12.7104 13.4906 12.9945C13.3076 13.2787 12.785 13.9235 12.6282 14.1093C12.4713 14.3005 12.3093 14.3224 12.0375 14.1803C11.7657 14.0383 10.8876 13.7377 9.84745 12.765C9.03728 12.0109 8.49369 11.0765 8.33165 10.7923C8.17485 10.5082 8.31597 10.3552 8.45187 10.2131C8.57209 10.0874 8.72367 9.87978 8.85957 9.71585C8.99547 9.55191 9.04251 9.43169 9.13137 9.24044C9.22022 9.04918 9.17841 8.88525 9.11046 8.74317C9.04251 8.60109 8.49891 7.19672 8.26893 6.62842C8.0494 6.07104 7.82465 6.14754 7.65739 6.14208C7.50058 6.13115 7.31764 6.13115 7.1347 6.13115C6.95176 6.13115 6.65905 6.20219 6.40816 6.48634C6.15727 6.77049 5.45687 7.45902 5.45687 8.86339C5.45687 10.2678 6.4343 11.6175 6.57019 11.8087C6.70609 12 8.48846 14.8743 11.2221 16.1093C11.8703 16.4044 12.3773 16.5792 12.7745 16.7104C13.4279 16.929 14.0185 16.8962 14.4889 16.8251C15.0116 16.7432 16.0988 16.1366 16.3288 15.4699C16.5535 14.8033 16.5535 14.235 16.4856 14.1148C16.4176 13.9945 16.2347 13.9235 15.9629 13.7814Z" fill="#808080"/>
</svg>
